<?xml version="1.0" encoding="utf-8"?>
<!-- Generator: Adobe Illustrator 20.1.0, SVG Export Plug-In . SVG Version: 6.00 Build 0)  -->
<svg version="1.1" id="Layer_1" xmlns="http://www.w3.org/2000/svg" xmlns:xlink="http://www.w3.org/1999/xlink" x="0px" y="0px"
	 viewBox="0 0 317.9 306.7" style="enable-background:new 0 0 317.9 306.7;" xml:space="preserve">
<style type="text/css">
	.st0{fill:#FFDC00;}
</style>
<g>
	<path class="st0" d="M95.7,262.9h-5.3l-5.4-16.1l-5.2,16.1h-5.2l-8.9-24.1h6.7l4.9,15.2l4.8-15.2h5.6l4.9,15.2l4.9-15.2h6.7
		L95.7,262.9z"/>
	<path class="st0" d="M127.6,252.8H110c0.4,3.1,3,5,6.4,5c2.3,0,4.7-1,5.8-3c1.4,0.8,3.1,1.7,4.6,2.5c-2.1,4-6.5,5.6-10.8,5.6
		c-6.6,0-12-4.9-12-12.1c0-7.3,5.4-12,12-12c6.6,0,11.7,4.7,11.7,12C127.7,251.3,127.7,252.3,127.6,252.8z M121.8,248.7
		c-0.4-3.2-2.8-4.9-5.8-4.9c-3.2,0-5.7,1.8-6.1,4.9H121.8z"/>
	<path class="st0" d="M131.4,224.6h5.9v38.3h-5.9V224.6z"/>
	<path class="st0" d="M161.6,250.8c0-7.3,5.5-12,12-12c6.5,0,12,4.7,12,12c0,7.3-5.5,12.1-12,12.1
		C167.1,262.9,161.6,258.1,161.6,250.8z M179.7,250.8c0-3.7-2.7-6-6-6c-3.3,0-6,2.4-6,6c0,3.8,2.7,6.2,6,6.2
		C177,257,179.7,254.6,179.7,250.8z"/>
	<path class="st0" d="M210.4,250.5v12.3h-6v-12.7c0-3.2-1.9-5-4.3-5c-2.5,0-4.9,1.4-4.9,5.4v12.3h-6v-23.1h6v3.4
		c1.3-2.8,4.5-3.9,6.6-3.9c3.7,0.2,6.1,1.5,7.4,4.3c2.2-3.8,5.5-4.4,7.3-4.4c5.6,0,8.9,3.6,8.9,10.4v13.2h-6v-12.6
		c0-3.3-1.9-5.2-4.4-5.2C212.4,245.1,210.4,247,210.4,250.5z"/>
	<path class="st0" d="M252.1,252.8h-17.6c0.4,3.1,3,5,6.4,5c2.3,0,4.7-1,5.8-3c1.4,0.8,3.1,1.7,4.6,2.5c-2.1,4-6.5,5.6-10.8,5.6
		c-6.6,0-12-4.9-12-12.1c0-7.3,5.4-12,12-12s11.7,4.7,11.7,12C252.2,251.3,252.1,252.3,252.1,252.8z M246.3,248.7
		c-0.4-3.2-2.8-4.9-5.8-4.9c-3.2,0-5.7,1.8-6.1,4.9H246.3z"/>
	<path class="st0" d="M157.7,255c-1.1,1.3-2.8,2-4.6,2c-3.3,0-6-2.4-6-6.2c0-3.7,2.7-6,6-6c1.8,0,3.5,0.7,4.6,2
		c0.6-2.1,1.5-4,2.8-5.5c-2.1-1.5-4.6-2.4-7.4-2.4c-6.6,0-12,4.7-12,12c0,7.3,5.5,12.1,12,12.1c2.8,0,5.3-0.9,7.4-2.4
		C159.2,258.9,158.2,257,157.7,255z"/>
</g>
<g>
	<g>
		<path class="st0" d="M175.4,87.6v54.6c0,6-4.9,10.9-10.9,10.9c-5.9,0-10.7-4.7-10.9-10.6c0-0.1,0-0.2,0-0.3h0V87.6h-44v54.6
			c0,0.1,0,0.2,0,0.3c-0.2,5.9-5,10.6-10.9,10.6c-6,0-10.9-4.9-10.9-10.9V87.6h-44v54.6c0,30.3,24.6,54.9,54.9,54.9
			c12.3,0,23.7-4.1,32.9-11c9.2,6.9,20.6,11,32.9,11c30.3,0,54.9-24.6,54.9-54.9V87.6H175.4z"/>
		<circle class="st0" cx="252.2" cy="175.3" r="21.9"/>
	</g>
	<path class="st0" d="M274.1,76.6c0-12.1-9.8-21.9-21.9-21.9c-12.1,0-21.9,9.8-21.9,21.9c0,0,0,0,0,0h0v43.8
		c0,12.1,9.8,21.9,21.9,21.9c12.1,0,21.9-9.8,21.9-21.9V76.6L274.1,76.6C274.1,76.7,274.1,76.6,274.1,76.6z"/>
</g>
<g>
</g>
<g>
</g>
<g>
</g>
<g>
</g>
<g>
</g>
<g>
</g>
<g>
</g>
<g>
</g>
<g>
</g>
<g>
</g>
<g>
</g>
<g>
</g>
<g>
</g>
<g>
</g>
<g>
</g>
</svg>
